%FSLAX34Y34*%
%MOMM*%
%LNSOLDERMASK_BOTTOM*%
G71*
G01*
%ADD10C, 2.10*%
%ADD11C, 1.85*%
%ADD12C, 2.80*%
%LPD*%
G54D10*
X380512Y-636316D02*
X380512Y-651316D01*
G54D10*
X362053Y-635916D02*
X362053Y-650916D01*
G54D10*
X399356Y-636112D02*
X399356Y-651112D01*
X406106Y-485062D02*
G54D11*
D03*
X333875Y-440738D02*
G54D11*
D03*
X333875Y-509000D02*
G54D11*
D03*
X430712Y-521575D02*
G54D11*
D03*
X264025Y-521575D02*
G54D11*
D03*
X280694Y-538244D02*
G54D11*
D03*
X280694Y-558881D02*
G54D11*
D03*
X279900Y-679531D02*
G54D11*
D03*
X474488Y-485188D02*
G54D12*
D03*
X474488Y-645525D02*
G54D12*
D03*
X569738Y-644731D02*
G54D12*
D03*
X570531Y-485188D02*
G54D12*
D03*
X591962Y-441531D02*
G54D12*
D03*
X626094Y-474869D02*
G54D12*
D03*
X334669Y-620000D02*
G54D11*
D03*
X334272Y-701359D02*
G54D11*
D03*
G36*
X365863Y-749409D02*
X337863Y-749409D01*
X337863Y-721409D01*
X365863Y-721409D01*
X365863Y-749409D01*
G37*
X326463Y-735409D02*
G54D12*
D03*
X301063Y-735409D02*
G54D12*
D03*
X275663Y-735409D02*
G54D12*
D03*
G36*
X433497Y-688866D02*
X433497Y-716866D01*
X405497Y-716866D01*
X405497Y-688866D01*
X433497Y-688866D01*
G37*
X444897Y-702866D02*
G54D12*
D03*
M02*
