%FSLAX34Y34*%
%MOMM*%
%LNSILK_TOP*%
G71*
G01*
%ADD10C, 1.50*%
%ADD11C, 1.25*%
%ADD12C, 0.60*%
%ADD13C, 2.20*%
%LPD*%
G54D10*
X380512Y-636316D02*
X380512Y-651316D01*
G54D10*
X362053Y-635916D02*
X362053Y-650916D01*
G54D10*
X399356Y-636112D02*
X399356Y-651112D01*
X406106Y-485062D02*
G54D11*
D03*
G54D12*
X569706Y-483750D02*
X443412Y-440738D01*
X335462Y-440738D01*
X333875Y-440738D02*
G54D11*
D03*
G54D12*
X333875Y-439150D02*
X333875Y-509000D01*
X333875Y-509000D02*
G54D11*
D03*
X430712Y-521575D02*
G54D11*
D03*
X264025Y-521575D02*
G54D11*
D03*
G54D12*
X406900Y-485981D02*
X442619Y-485981D01*
X474000Y-533000D01*
X474216Y-643856D01*
X397856Y-643938D01*
G54D12*
X264025Y-521700D02*
X432300Y-521700D01*
X280694Y-538244D02*
G54D11*
D03*
X280694Y-558881D02*
G54D11*
D03*
X279900Y-679531D02*
G54D11*
D03*
G54D12*
X280812Y-680450D02*
X326056Y-727281D01*
X326056Y-733631D01*
X326850Y-734425D01*
G54D12*
X280812Y-559006D02*
X280812Y-559800D01*
X263350Y-577262D01*
X263350Y-693150D01*
X303038Y-732838D01*
G54D12*
X280019Y-538369D02*
X280019Y-539162D01*
X248269Y-570912D01*
X248269Y-705850D01*
X276050Y-733631D01*
X474488Y-485188D02*
G54D13*
D03*
X474488Y-645525D02*
G54D13*
D03*
X569738Y-644731D02*
G54D13*
D03*
X570531Y-485188D02*
G54D13*
D03*
X591962Y-441531D02*
G54D13*
D03*
X626094Y-474869D02*
G54D13*
D03*
X334669Y-620000D02*
G54D11*
D03*
X334272Y-701359D02*
G54D11*
D03*
G54D12*
X334516Y-620044D02*
X334516Y-702197D01*
X334119Y-702594D01*
G36*
X362863Y-746409D02*
X340863Y-746409D01*
X340863Y-724409D01*
X362863Y-724409D01*
X362863Y-746409D01*
G37*
X326463Y-735409D02*
G54D13*
D03*
X301063Y-735409D02*
G54D13*
D03*
X275663Y-735409D02*
G54D13*
D03*
G36*
X430497Y-691866D02*
X430497Y-713866D01*
X408497Y-713866D01*
X408497Y-691866D01*
X430497Y-691866D01*
G37*
X444897Y-702866D02*
G54D13*
D03*
M02*
