%FSLAX34Y34*%
%MOMM*%
%LNSMDMASK_TOP*%
G71*
G01*
%ADD10R, 2.60X1.00*%
%ADD11R, 1.70X2.10*%
%ADD12R, 1.30X1.40*%
%ADD13R, 1.40X1.30*%
%ADD14R, 2.00X1.50*%
%LPD*%
X356000Y-551838D02*
G54D10*
D03*
X356000Y-564538D02*
G54D10*
D03*
X356000Y-577238D02*
G54D10*
D03*
X356000Y-589938D02*
G54D10*
D03*
X406000Y-589938D02*
G54D10*
D03*
X406000Y-577238D02*
G54D10*
D03*
X406000Y-564538D02*
G54D10*
D03*
X406000Y-551838D02*
G54D10*
D03*
X359685Y-465093D02*
G54D11*
D03*
G36*
X374185Y-454694D02*
X391185Y-454693D01*
X391185Y-475693D01*
X374185Y-475694D01*
X374185Y-454694D01*
G37*
G36*
X397185Y-454694D02*
X414185Y-454693D01*
X414185Y-475693D01*
X397185Y-475694D01*
X397185Y-454694D01*
G37*
G36*
X360785Y-394994D02*
X404785Y-394993D01*
X404785Y-417993D01*
X360785Y-417994D01*
X360785Y-394994D01*
G37*
X92575Y-539162D02*
G54D12*
D03*
X109575Y-539162D02*
G54D12*
D03*
X332850Y-659250D02*
G54D13*
D03*
X332850Y-676250D02*
G54D13*
D03*
X92575Y-578850D02*
G54D12*
D03*
X109575Y-578850D02*
G54D12*
D03*
X433888Y-551862D02*
G54D12*
D03*
X450888Y-551862D02*
G54D12*
D03*
X433888Y-580438D02*
G54D12*
D03*
X450888Y-580438D02*
G54D12*
D03*
X433888Y-616156D02*
G54D12*
D03*
X450888Y-616156D02*
G54D12*
D03*
X373497Y-703469D02*
G54D12*
D03*
X356497Y-703469D02*
G54D12*
D03*
X327747Y-459554D02*
G54D14*
D03*
X327847Y-492054D02*
G54D14*
D03*
M02*
