%FSLAX34Y34*%
%MOMM*%
%LNCOPPER_BOTTOM*%
G71*
G01*
%ADD10C, 0.15*%
%ADD11C, 0.06*%
%ADD12C, 0.00*%
%ADD13C, 0.09*%
%ADD14C, 0.10*%
%ADD15C, 0.11*%
%ADD16C, 0.13*%
%ADD17C, 0.16*%
%ADD18C, 0.07*%
%LPD*%
G54D10*
X391000Y-544838D02*
X371000Y-544838D01*
X371000Y-595938D01*
X391000Y-595938D01*
X391000Y-544838D01*
G54D10*
X386000Y-544838D02*
X376000Y-544838D01*
X376000Y-549838D01*
X386000Y-549838D01*
X386000Y-544838D01*
G54D11*
X294232Y-542087D02*
X294232Y-537643D01*
G54D11*
X292899Y-537643D02*
X295565Y-537643D01*
G54D11*
X296788Y-539587D02*
X299454Y-542087D01*
G54D11*
X296788Y-542087D02*
X299454Y-539587D01*
G54D11*
X300676Y-542087D02*
X300676Y-537642D01*
X302343Y-537642D01*
X303010Y-537920D01*
X303343Y-538476D01*
X303343Y-541254D01*
X303010Y-541809D01*
X302343Y-542087D01*
X300676Y-542087D01*
G54D11*
X295026Y-558518D02*
X296026Y-559073D01*
X296359Y-559629D01*
X296359Y-560740D01*
G54D11*
X293692Y-560740D02*
X293692Y-556296D01*
X295359Y-556296D01*
X296026Y-556573D01*
X296359Y-557129D01*
X296359Y-557685D01*
X296026Y-558240D01*
X295359Y-558518D01*
X293692Y-558518D01*
G54D11*
X297581Y-558240D02*
X300248Y-560740D01*
G54D11*
X297581Y-560740D02*
X300248Y-558240D01*
G54D11*
X301470Y-560740D02*
X301470Y-556296D01*
X303137Y-556296D01*
X303804Y-556573D01*
X304137Y-557129D01*
X304136Y-559907D01*
X303804Y-560462D01*
X303137Y-560740D01*
X301470Y-560740D01*
G54D11*
X281759Y-599395D02*
X283093Y-599395D01*
X283093Y-600784D01*
X282759Y-601340D01*
X282093Y-601618D01*
X281426Y-601618D01*
X280759Y-601340D01*
X280426Y-600784D01*
X280426Y-598006D01*
X280759Y-597451D01*
X281426Y-597173D01*
X282093Y-597173D01*
X282759Y-597451D01*
X283093Y-598006D01*
G54D11*
X284315Y-601618D02*
X284315Y-597173D01*
X285982Y-597173D01*
X286648Y-597451D01*
X286982Y-598006D01*
X286982Y-598562D01*
X286648Y-599118D01*
X285982Y-599395D01*
X284315Y-599395D01*
G54D11*
X288204Y-601618D02*
X288204Y-597173D01*
G54D11*
X292093Y-598006D02*
X292093Y-600784D01*
X291759Y-601340D01*
X291093Y-601618D01*
X290426Y-601618D01*
X289759Y-601340D01*
X289426Y-600784D01*
X289426Y-598006D01*
X289759Y-597451D01*
X290426Y-597173D01*
X291093Y-597173D01*
X291759Y-597451D01*
X292093Y-598006D01*
G54D11*
X295315Y-601618D02*
X295315Y-597173D01*
X293315Y-599951D01*
X293315Y-600506D01*
X295982Y-600506D01*
G54D12*
X305300Y-700169D02*
X135040Y-700169D01*
G54D12*
X305300Y-700169D02*
X305300Y-452122D01*
X134644Y-452122D01*
G54D12*
X135040Y-700169D02*
X135041Y-452121D01*
G54D11*
X281617Y-580346D02*
X282950Y-580346D01*
X282950Y-581734D01*
X282617Y-582290D01*
X281950Y-582568D01*
X281283Y-582568D01*
X280617Y-582290D01*
X280283Y-581734D01*
X280283Y-578956D01*
X280617Y-578401D01*
X281283Y-578124D01*
X281950Y-578124D01*
X282617Y-578401D01*
X282950Y-578957D01*
G54D11*
X284172Y-582568D02*
X284172Y-578124D01*
X285839Y-578124D01*
X286506Y-578402D01*
X286839Y-578957D01*
X286839Y-579512D01*
X286506Y-580068D01*
X285839Y-580346D01*
X284173Y-580346D01*
G54D11*
X288061Y-582568D02*
X290728Y-582568D01*
G54D11*
X289394Y-582568D02*
X289394Y-578124D01*
G54D11*
X288061Y-578124D02*
X290728Y-578124D01*
G54D11*
X294617Y-578957D02*
X294617Y-581735D01*
X294284Y-582290D01*
X293617Y-582568D01*
X292950Y-582568D01*
X292284Y-582290D01*
X291950Y-581735D01*
X291950Y-578957D01*
X292283Y-578402D01*
X292950Y-578124D01*
X293617Y-578124D01*
X294283Y-578402D01*
X294617Y-578957D01*
G54D11*
X298506Y-578124D02*
X295839Y-578124D01*
X295839Y-580068D01*
X296172Y-580068D01*
X296840Y-579790D01*
X297506Y-579790D01*
X298172Y-580068D01*
X298506Y-580624D01*
X298506Y-581735D01*
X298172Y-582290D01*
X297506Y-582568D01*
X296839Y-582568D01*
X296172Y-582290D01*
X295839Y-581735D01*
G54D11*
X282410Y-620430D02*
X283744Y-620431D01*
X283744Y-621819D01*
X283410Y-622375D01*
X282744Y-622652D01*
X282077Y-622652D01*
X281411Y-622375D01*
X281077Y-621819D01*
X281077Y-619041D01*
X281410Y-618486D01*
X282077Y-618208D01*
X282744Y-618208D01*
X283410Y-618485D01*
X283744Y-619041D01*
G54D11*
X284966Y-622652D02*
X284966Y-618208D01*
X286632Y-618208D01*
X287299Y-618485D01*
X287633Y-619041D01*
X287633Y-619596D01*
X287299Y-620152D01*
X286632Y-620430D01*
X284966Y-620430D01*
G54D11*
X288855Y-622652D02*
X291522Y-622653D01*
G54D11*
X290188Y-622652D02*
X290188Y-618208D01*
G54D11*
X288855Y-618208D02*
X291522Y-618208D01*
G54D11*
X295411Y-619041D02*
X295410Y-621819D01*
X295077Y-622375D01*
X294410Y-622652D01*
X293744Y-622652D01*
X293077Y-622375D01*
X292744Y-621819D01*
X292744Y-619041D01*
X293078Y-618486D01*
X293744Y-618208D01*
X294410Y-618208D01*
X295077Y-618486D01*
X295411Y-619041D01*
G54D11*
X299300Y-619041D02*
X299300Y-621819D01*
X298966Y-622375D01*
X298300Y-622652D01*
X297633Y-622652D01*
X296967Y-622375D01*
X296633Y-621819D01*
X296633Y-619041D01*
X296966Y-618486D01*
X297633Y-618208D01*
X298300Y-618208D01*
X298966Y-618486D01*
X299300Y-619041D01*
G54D11*
X283204Y-640274D02*
X284537Y-640274D01*
X284537Y-641663D01*
X284204Y-642218D01*
X283538Y-642496D01*
X282871Y-642496D01*
X282204Y-642218D01*
X281870Y-641662D01*
X281871Y-638885D01*
X282204Y-638329D01*
X282871Y-638052D01*
X283537Y-638052D01*
X284204Y-638329D01*
X284538Y-638885D01*
G54D11*
X285760Y-642496D02*
X285760Y-638052D01*
X287426Y-638052D01*
X288093Y-638330D01*
X288426Y-638885D01*
X288426Y-639440D01*
X288093Y-639996D01*
X287426Y-640274D01*
X285760Y-640274D01*
G54D11*
X289648Y-642496D02*
X292316Y-642496D01*
G54D11*
X290982Y-642496D02*
X290982Y-638052D01*
G54D11*
X289649Y-638052D02*
X292315Y-638052D01*
G54D11*
X296204Y-638885D02*
X296204Y-641663D01*
X295871Y-642218D01*
X295204Y-642496D01*
X294538Y-642496D01*
X293871Y-642218D01*
X293538Y-641663D01*
X293538Y-638885D01*
X293871Y-638330D01*
X294538Y-638051D01*
X295204Y-638052D01*
X295871Y-638330D01*
X296204Y-638885D01*
G54D11*
X300093Y-642496D02*
X297426Y-642496D01*
X297427Y-642218D01*
X297760Y-641663D01*
X299760Y-639996D01*
X300093Y-639440D01*
X300094Y-638885D01*
X299760Y-638329D01*
X299094Y-638052D01*
X298427Y-638052D01*
X297760Y-638329D01*
X297426Y-638885D01*
G54D11*
X283204Y-660912D02*
X284537Y-660912D01*
X284537Y-662300D01*
X284204Y-662856D01*
X283537Y-663134D01*
X282871Y-663134D01*
X282204Y-662856D01*
X281871Y-662300D01*
X281870Y-659523D01*
X282204Y-658967D01*
X282871Y-658690D01*
X283538Y-658690D01*
X284204Y-658967D01*
X284537Y-659522D01*
G54D11*
X285760Y-663134D02*
X285760Y-658689D01*
X287426Y-658689D01*
X288093Y-658967D01*
X288426Y-659522D01*
X288426Y-660078D01*
X288093Y-660634D01*
X287426Y-660912D01*
X285760Y-660911D01*
G54D11*
X289649Y-663134D02*
X292315Y-663134D01*
G54D11*
X290982Y-663134D02*
X290982Y-658689D01*
G54D11*
X289648Y-658689D02*
X292316Y-658689D01*
G54D11*
X296204Y-659523D02*
X296204Y-662300D01*
X295871Y-662856D01*
X295204Y-663134D01*
X294538Y-663134D01*
X293871Y-662856D01*
X293538Y-662300D01*
X293538Y-659522D01*
X293871Y-658967D01*
X294537Y-658689D01*
X295205Y-658689D01*
X295871Y-658967D01*
X296204Y-659523D01*
G54D11*
X297427Y-660356D02*
X299093Y-658689D01*
X299094Y-663134D01*
G54D11*
X302982Y-658689D02*
X300316Y-658689D01*
X300316Y-660634D01*
X300649Y-660634D01*
X301316Y-660356D01*
X301982Y-660356D01*
X302649Y-660634D01*
X302982Y-661189D01*
X302982Y-662300D01*
X302649Y-662856D01*
X301982Y-663134D01*
X301316Y-663134D01*
X300649Y-662856D01*
X300316Y-662300D01*
G54D11*
X293474Y-679565D02*
X294808Y-679564D01*
X294808Y-680953D01*
X294474Y-681509D01*
X293808Y-681787D01*
X293141Y-681787D01*
X292474Y-681509D01*
X292141Y-680954D01*
X292141Y-678176D01*
X292474Y-677620D01*
X293141Y-677342D01*
X293808Y-677342D01*
X294474Y-677620D01*
X294808Y-678176D01*
G54D11*
X296030Y-681787D02*
X296030Y-677342D01*
X298697Y-681787D01*
X298697Y-677342D01*
G54D11*
X299919Y-681787D02*
X299919Y-677342D01*
X301586Y-677342D01*
X302252Y-677620D01*
X302586Y-678176D01*
X302586Y-680954D01*
X302252Y-681509D01*
X301586Y-681787D01*
X299919Y-681787D01*
G54D11*
X137557Y-539071D02*
X138557Y-539626D01*
X138890Y-540182D01*
X138890Y-541294D01*
G54D11*
X136224Y-541294D02*
X136224Y-536849D01*
X137890Y-536849D01*
X138557Y-537126D01*
X138891Y-537682D01*
X138891Y-538237D01*
X138557Y-538793D01*
X137890Y-539071D01*
X136224Y-539071D01*
G54D11*
X142446Y-541294D02*
X140113Y-541293D01*
X140113Y-536849D01*
X142446Y-536849D01*
G54D11*
X140113Y-539071D02*
X142446Y-539071D01*
G54D11*
X143668Y-540460D02*
X144001Y-541015D01*
X144668Y-541294D01*
X145334Y-541294D01*
X146001Y-541015D01*
X146334Y-540460D01*
X146334Y-539904D01*
X146001Y-539349D01*
X145334Y-539071D01*
X144668Y-539071D01*
X144001Y-538793D01*
X143668Y-538238D01*
X143668Y-537682D01*
X144001Y-537126D01*
X144668Y-536849D01*
X145334Y-536849D01*
X146001Y-537126D01*
X146334Y-537682D01*
G54D11*
X148890Y-541294D02*
X148890Y-536849D01*
G54D11*
X147557Y-536849D02*
X150224Y-536849D01*
G54D11*
X139093Y-560343D02*
X140760Y-555899D01*
X142426Y-560343D01*
G54D11*
X139760Y-558677D02*
X141760Y-558676D01*
G54D11*
X143648Y-560343D02*
X143648Y-555899D01*
X145314Y-555899D01*
X145981Y-556177D01*
X146314Y-556732D01*
X146314Y-559510D01*
X145981Y-560066D01*
X145314Y-560343D01*
X143648Y-560343D01*
G54D11*
X150203Y-559510D02*
X149870Y-560066D01*
X149203Y-560343D01*
X148537Y-560343D01*
X147870Y-560066D01*
X147537Y-559510D01*
X147537Y-556732D01*
X147870Y-556176D01*
X148537Y-555899D01*
X149203Y-555899D01*
X149870Y-556176D01*
X150203Y-556732D01*
G54D11*
X140186Y-580941D02*
X139853Y-581497D01*
X139186Y-581775D01*
X138519Y-581775D01*
X137853Y-581497D01*
X137520Y-580941D01*
X137520Y-578163D01*
X137853Y-577608D01*
X138520Y-577330D01*
X139186Y-577330D01*
X139853Y-577607D01*
X140186Y-578163D01*
G54D11*
X141409Y-581774D02*
X141408Y-577330D01*
G54D11*
X144075Y-581774D02*
X144075Y-577330D01*
G54D11*
X141409Y-579552D02*
X144075Y-579552D01*
G54D11*
X145298Y-579830D02*
X147964Y-579830D01*
G54D11*
X149187Y-581774D02*
X149186Y-577330D01*
X150853Y-577330D01*
X151520Y-577608D01*
X151853Y-578163D01*
X151853Y-578719D01*
X151520Y-579274D01*
X150853Y-579553D01*
X149187Y-579552D01*
G54D11*
X153076Y-581774D02*
X153076Y-577330D01*
X154742Y-577330D01*
X155409Y-577608D01*
X155742Y-578163D01*
X155742Y-580941D01*
X155409Y-581497D01*
X154742Y-581774D01*
X153076Y-581774D01*
G54D11*
X137948Y-598999D02*
X139281Y-598999D01*
X139281Y-600388D01*
X138948Y-600943D01*
X138281Y-601221D01*
X137614Y-601221D01*
X136948Y-600944D01*
X136614Y-600388D01*
X136614Y-597610D01*
X136948Y-597054D01*
X137614Y-596777D01*
X138281Y-596777D01*
X138948Y-597054D01*
X139281Y-597610D01*
G54D11*
X140503Y-601221D02*
X140503Y-596777D01*
X142170Y-596777D01*
X142837Y-597054D01*
X143170Y-597610D01*
X143170Y-598165D01*
X142837Y-598721D01*
X142170Y-598999D01*
X140503Y-598999D01*
G54D11*
X144392Y-601221D02*
X147059Y-601221D01*
G54D11*
X145726Y-601221D02*
X145726Y-596777D01*
G54D11*
X144392Y-596777D02*
X147059Y-596777D01*
G54D11*
X150948Y-597610D02*
X150948Y-600388D01*
X150615Y-600943D01*
X149948Y-601221D01*
X149282Y-601221D01*
X148615Y-600943D01*
X148281Y-600388D01*
X148281Y-597610D01*
X148615Y-597054D01*
X149282Y-596777D01*
X149948Y-596777D01*
X150615Y-597054D01*
X150948Y-597610D01*
G54D11*
X152170Y-598443D02*
X153837Y-596776D01*
X153837Y-601221D01*
G54D11*
X157726Y-597610D02*
X157392Y-597054D01*
X156726Y-596777D01*
X156059Y-596777D01*
X155393Y-597054D01*
X155059Y-597610D01*
X155060Y-598999D01*
X155060Y-599277D01*
X156060Y-598722D01*
X156726Y-598721D01*
X157392Y-598999D01*
X157726Y-599555D01*
X157726Y-600388D01*
X157392Y-600944D01*
X156726Y-601221D01*
X156059Y-601221D01*
X155393Y-600943D01*
X155060Y-600388D01*
X155060Y-598999D01*
G54D11*
X139176Y-619636D02*
X140509Y-619636D01*
X140509Y-621025D01*
X140176Y-621581D01*
X139510Y-621859D01*
X138843Y-621859D01*
X138176Y-621581D01*
X137843Y-621025D01*
X137843Y-618248D01*
X138176Y-617692D01*
X138843Y-617414D01*
X139509Y-617414D01*
X140176Y-617692D01*
X140509Y-618248D01*
G54D11*
X141732Y-621859D02*
X141732Y-617414D01*
X143398Y-617414D01*
X144065Y-617692D01*
X144398Y-618248D01*
X144398Y-618803D01*
X144065Y-619359D01*
X143398Y-619636D01*
X141732Y-619637D01*
G54D11*
X145621Y-621859D02*
X148287Y-621859D01*
G54D11*
X146954Y-621859D02*
X146954Y-617414D01*
G54D11*
X145621Y-617414D02*
X148287Y-617414D01*
G54D11*
X152176Y-618248D02*
X152176Y-621026D01*
X151843Y-621581D01*
X151176Y-621859D01*
X150510Y-621859D01*
X149843Y-621581D01*
X149510Y-621026D01*
X149510Y-618248D01*
X149843Y-617692D01*
X150510Y-617414D01*
X151176Y-617414D01*
X151843Y-617692D01*
X152176Y-618248D01*
G54D11*
X153399Y-619081D02*
X155066Y-617414D01*
X155066Y-621859D01*
G54D11*
X158288Y-621859D02*
X158288Y-617414D01*
X156288Y-620192D01*
X156288Y-620748D01*
X158954Y-620748D01*
G54D11*
X140330Y-640274D02*
X141663Y-640274D01*
X141663Y-641662D01*
X141329Y-642218D01*
X140663Y-642496D01*
X139996Y-642496D01*
X139330Y-642218D01*
X138996Y-641662D01*
X138996Y-638885D01*
X139330Y-638329D01*
X139996Y-638052D01*
X140663Y-638052D01*
X141329Y-638329D01*
X141663Y-638885D01*
G54D11*
X142885Y-642496D02*
X142885Y-638052D01*
X144552Y-638052D01*
X145218Y-638330D01*
X145552Y-638885D01*
X145552Y-639440D01*
X145219Y-639996D01*
X144552Y-640274D01*
X142885Y-640274D01*
G54D11*
X146774Y-642496D02*
X149441Y-642496D01*
G54D11*
X148107Y-642496D02*
X148108Y-638052D01*
G54D11*
X146774Y-638052D02*
X149441Y-638052D01*
G54D11*
X153330Y-638885D02*
X153330Y-641662D01*
X152997Y-642218D01*
X152330Y-642496D01*
X151663Y-642496D01*
X150997Y-642218D01*
X150663Y-641663D01*
X150663Y-638885D01*
X150996Y-638329D01*
X151663Y-638051D01*
X152330Y-638052D01*
X152996Y-638329D01*
X153330Y-638885D01*
G54D11*
X154552Y-639718D02*
X156219Y-638051D01*
X156219Y-642496D01*
G54D11*
X160108Y-642496D02*
X157441Y-642496D01*
X157441Y-642218D01*
X157774Y-641663D01*
X159775Y-639996D01*
X160107Y-639440D01*
X160108Y-638885D01*
X159774Y-638329D01*
X159108Y-638052D01*
X158441Y-638052D01*
X157774Y-638329D01*
X157441Y-638885D01*
G54D11*
X139139Y-660515D02*
X140472Y-660515D01*
X140472Y-661904D01*
X140139Y-662459D01*
X139472Y-662737D01*
X138806Y-662737D01*
X138139Y-662459D01*
X137806Y-661904D01*
X137806Y-659126D01*
X138139Y-658570D01*
X138806Y-658292D01*
X139472Y-658292D01*
X140139Y-658570D01*
X140472Y-659126D01*
G54D11*
X141695Y-662736D02*
X141694Y-658292D01*
X143361Y-658292D01*
X144028Y-658570D01*
X144361Y-659126D01*
X144361Y-659681D01*
X144028Y-660237D01*
X143361Y-660514D01*
X141695Y-660515D01*
G54D11*
X145584Y-662737D02*
X148250Y-662737D01*
G54D11*
X146917Y-662737D02*
X146917Y-658292D01*
G54D11*
X145584Y-658292D02*
X148250Y-658292D01*
G54D11*
X152139Y-659126D02*
X152139Y-661904D01*
X151806Y-662459D01*
X151140Y-662737D01*
X150473Y-662737D01*
X149806Y-662459D01*
X149473Y-661904D01*
X149473Y-659126D01*
X149806Y-658570D01*
X150472Y-658292D01*
X151139Y-658292D01*
X151806Y-658570D01*
X152139Y-659126D01*
G54D11*
X153362Y-659959D02*
X155028Y-658292D01*
X155028Y-662737D01*
G54D11*
X156251Y-659126D02*
X156584Y-658570D01*
X157251Y-658292D01*
X157917Y-658292D01*
X158584Y-658570D01*
X158917Y-659126D01*
X158918Y-659681D01*
X158584Y-660237D01*
X157918Y-660515D01*
X158584Y-660792D01*
X158918Y-661348D01*
X158918Y-661904D01*
X158584Y-662459D01*
X157918Y-662737D01*
X157251Y-662737D01*
X156584Y-662459D01*
X156250Y-661904D01*
G54D11*
X140275Y-677342D02*
X141941Y-681786D01*
X143608Y-677342D01*
G54D11*
X146496Y-679454D02*
X145830Y-679287D01*
X145163Y-679454D01*
X144830Y-680009D01*
X144830Y-681120D01*
X145163Y-681676D01*
X145830Y-681787D01*
X146496Y-681676D01*
G54D11*
X149385Y-679454D02*
X148719Y-679287D01*
X148052Y-679453D01*
X147719Y-680009D01*
X147718Y-681120D01*
X148052Y-681676D01*
X148718Y-681787D01*
X149386Y-681676D01*
G54D13*
X360802Y-470751D02*
X360802Y-468618D01*
X363025Y-468618D01*
X363914Y-469151D01*
X364358Y-470218D01*
X364358Y-471285D01*
X363914Y-472351D01*
X363025Y-472885D01*
X358580Y-472885D01*
X357691Y-472351D01*
X357247Y-471285D01*
X357247Y-470218D01*
X357691Y-469151D01*
X358580Y-468618D01*
G54D13*
X364358Y-466662D02*
X360358Y-466662D01*
G54D13*
X361247Y-466662D02*
X360625Y-466128D01*
X360358Y-465062D01*
X360625Y-463995D01*
X361247Y-463462D01*
X364358Y-463462D01*
G54D13*
X364358Y-458306D02*
X357247Y-458306D01*
G54D13*
X361514Y-458306D02*
X360625Y-458839D01*
X360358Y-459906D01*
X360625Y-460972D01*
X361514Y-461506D01*
X363291Y-461506D01*
X364180Y-460972D01*
X364358Y-459906D01*
X364180Y-458839D01*
X363291Y-458306D01*
G54D13*
X403286Y-471297D02*
X410397Y-468631D01*
X403286Y-465964D01*
G54D13*
X410397Y-464008D02*
X406397Y-464008D01*
G54D13*
X405063Y-464008D02*
X405063Y-464008D01*
G54D13*
X410397Y-462052D02*
X406397Y-462052D01*
G54D13*
X407286Y-462052D02*
X406663Y-461519D01*
X406397Y-460452D01*
X406663Y-459386D01*
X407286Y-458852D01*
X410396Y-458852D01*
G54D14*
X350985Y-453894D02*
X350985Y-418993D01*
X414485Y-418994D01*
X414485Y-453893D01*
X350985Y-453894D01*
G54D15*
X357688Y-438790D02*
X361021Y-435457D01*
X361021Y-444346D01*
G54D15*
X363465Y-438790D02*
X366798Y-435457D01*
X366798Y-444346D01*
G54D15*
X369242Y-438790D02*
X372575Y-435457D01*
X372575Y-444346D01*
G54D15*
X375019Y-435457D02*
X380352Y-435457D01*
X379686Y-436568D01*
X378352Y-438235D01*
X377019Y-440457D01*
X376352Y-442124D01*
X376352Y-444346D01*
G54D15*
X382796Y-440457D02*
X388129Y-440457D01*
G54D15*
X390573Y-437124D02*
X391240Y-436013D01*
X392573Y-435457D01*
X393906Y-435457D01*
X395240Y-436013D01*
X395906Y-437124D01*
X395906Y-438235D01*
X395240Y-439346D01*
X393906Y-439902D01*
X395240Y-440457D01*
X395906Y-441568D01*
X395906Y-442679D01*
X395240Y-443790D01*
X393906Y-444346D01*
X392573Y-444346D01*
X391240Y-443790D01*
X390573Y-442679D01*
G54D15*
X398350Y-444346D02*
X398350Y-444346D01*
G54D15*
X400794Y-437124D02*
X401461Y-436013D01*
X402794Y-435457D01*
X404127Y-435457D01*
X405461Y-436013D01*
X406127Y-437124D01*
X406127Y-438235D01*
X405461Y-439346D01*
X404127Y-439902D01*
X405461Y-440457D01*
X406127Y-441568D01*
X406127Y-442679D01*
X405461Y-443790D01*
X404127Y-444346D01*
X402794Y-444346D01*
X401461Y-443790D01*
X400794Y-442679D01*
G54D13*
X379472Y-474472D02*
X386583Y-471806D01*
X379472Y-469139D01*
G54D13*
X385516Y-463983D02*
X383739Y-463983D01*
X382850Y-464517D01*
X382583Y-465583D01*
X382850Y-466650D01*
X383739Y-467183D01*
X385516Y-467183D01*
X386405Y-466650D01*
X386583Y-465583D01*
X386405Y-464516D01*
X385516Y-463983D01*
G54D13*
X382583Y-458827D02*
X386583Y-458827D01*
G54D13*
X385694Y-458827D02*
X386406Y-459360D01*
X386583Y-460427D01*
X386405Y-461494D01*
X385694Y-462027D01*
X382583Y-462027D01*
G54D13*
X379472Y-455804D02*
X386139Y-455804D01*
X386583Y-455271D01*
X386406Y-454738D01*
G54D13*
X382583Y-456871D02*
X382583Y-454738D01*
G54D10*
X84075Y-548162D02*
X84075Y-530162D01*
X118075Y-530162D01*
X118075Y-548162D01*
X84075Y-548162D01*
G54D10*
X323850Y-650750D02*
X341850Y-650750D01*
X341850Y-684750D01*
X323850Y-684750D01*
X323850Y-650750D01*
G54D10*
X84075Y-587850D02*
X84075Y-569850D01*
X118075Y-569850D01*
X118075Y-587850D01*
X84075Y-587850D01*
G54D10*
X425388Y-560862D02*
X425388Y-542862D01*
X459388Y-542862D01*
X459388Y-560862D01*
X425388Y-560862D01*
G54D10*
X425388Y-589438D02*
X425388Y-571438D01*
X459388Y-571438D01*
X459388Y-589438D01*
X425388Y-589438D01*
G54D10*
X425388Y-625156D02*
X425388Y-607156D01*
X459388Y-607156D01*
X459388Y-625156D01*
X425388Y-625156D01*
G54D13*
X296440Y-754285D02*
X298040Y-755174D01*
X298573Y-756063D01*
X298573Y-757841D01*
G54D13*
X294306Y-757841D02*
X294306Y-750730D01*
X296973Y-750730D01*
X298040Y-751174D01*
X298573Y-752063D01*
X298573Y-752952D01*
X298040Y-753841D01*
X296973Y-754285D01*
X294306Y-754285D01*
G54D13*
X300529Y-753841D02*
X304796Y-757841D01*
G54D13*
X300529Y-757841D02*
X304796Y-753841D01*
G54D13*
X306752Y-757841D02*
X306752Y-750730D01*
X309419Y-750730D01*
X310486Y-751174D01*
X311019Y-752063D01*
X311019Y-756507D01*
X310486Y-757396D01*
X309419Y-757841D01*
X306752Y-757841D01*
G54D13*
X270246Y-757444D02*
X270246Y-750333D01*
G54D13*
X268112Y-750333D02*
X272379Y-750333D01*
G54D13*
X274336Y-753444D02*
X278602Y-757444D01*
G54D13*
X274336Y-757444D02*
X278602Y-753444D01*
G54D13*
X280558Y-757444D02*
X280558Y-750333D01*
X283225Y-750333D01*
X284292Y-750777D01*
X284825Y-751666D01*
X284825Y-756110D01*
X284292Y-756999D01*
X283225Y-757444D01*
X280558Y-757444D01*
G54D13*
X321443Y-754682D02*
X323576Y-754682D01*
X323576Y-756904D01*
X323043Y-757793D01*
X321976Y-758238D01*
X320909Y-758238D01*
X319843Y-757793D01*
X319309Y-756904D01*
X319309Y-752460D01*
X319843Y-751571D01*
X320909Y-751126D01*
X321976Y-751126D01*
X323043Y-751571D01*
X323576Y-752460D01*
G54D13*
X325532Y-758238D02*
X325532Y-751126D01*
X329799Y-758238D01*
X329799Y-751126D01*
G54D13*
X331755Y-758238D02*
X331755Y-751126D01*
X334422Y-751126D01*
X335489Y-751571D01*
X336022Y-752460D01*
X336022Y-756904D01*
X335489Y-757793D01*
X334422Y-758238D01*
X331755Y-758238D01*
G54D13*
X435594Y-596630D02*
X438260Y-593964D01*
X438260Y-601075D01*
G54D13*
X444484Y-595297D02*
X444484Y-599742D01*
X443950Y-600630D01*
X442884Y-601075D01*
X441817Y-601075D01*
X440750Y-600630D01*
X440217Y-599742D01*
X440217Y-595297D01*
X440750Y-594408D01*
X441817Y-593964D01*
X442884Y-593964D01*
X443950Y-594408D01*
X444484Y-595297D01*
G54D13*
X446440Y-601075D02*
X446440Y-593964D01*
G54D13*
X448040Y-598408D02*
X449640Y-601075D01*
G54D13*
X446440Y-599297D02*
X449640Y-597075D01*
G54D13*
X434800Y-564087D02*
X437467Y-561420D01*
X437467Y-568531D01*
G54D13*
X443690Y-562754D02*
X443690Y-567198D01*
X443156Y-568087D01*
X442090Y-568531D01*
X441023Y-568531D01*
X439956Y-568087D01*
X439423Y-567198D01*
X439423Y-562754D01*
X439956Y-561864D01*
X441023Y-561420D01*
X442090Y-561420D01*
X443156Y-561864D01*
X443690Y-562754D01*
G54D13*
X445646Y-568531D02*
X445646Y-561420D01*
G54D13*
X447246Y-565864D02*
X448846Y-568531D01*
G54D13*
X445646Y-566754D02*
X448846Y-564531D01*
G54D13*
X434800Y-534718D02*
X437467Y-532051D01*
X437467Y-539162D01*
G54D13*
X443690Y-533385D02*
X443690Y-537829D01*
X443156Y-538718D01*
X442090Y-539162D01*
X441023Y-539162D01*
X439956Y-538718D01*
X439423Y-537829D01*
X439423Y-533385D01*
X439956Y-532496D01*
X441023Y-532051D01*
X442090Y-532051D01*
X443156Y-532496D01*
X443690Y-533385D01*
G54D13*
X445646Y-539162D02*
X445646Y-532051D01*
G54D13*
X447246Y-536496D02*
X448846Y-539162D01*
G54D13*
X445646Y-537385D02*
X448846Y-535162D01*
G54D13*
X97456Y-516462D02*
X100123Y-513795D01*
X100123Y-520906D01*
G54D13*
X106346Y-515128D02*
X106346Y-519573D01*
X105812Y-520462D01*
X104746Y-520906D01*
X103679Y-520906D01*
X102612Y-520462D01*
X102079Y-519573D01*
X102079Y-515128D01*
X102612Y-514240D01*
X103679Y-513795D01*
X104746Y-513795D01*
X105812Y-514240D01*
X106346Y-515128D01*
G54D13*
X108302Y-520906D02*
X108302Y-513795D01*
G54D13*
X109902Y-518240D02*
X111502Y-520906D01*
G54D13*
X108302Y-519128D02*
X111502Y-516906D01*
G54D13*
X98250Y-561706D02*
X100917Y-559039D01*
X100917Y-566150D01*
G54D13*
X107140Y-560372D02*
X107140Y-564817D01*
X106606Y-565706D01*
X105540Y-566150D01*
X104473Y-566150D01*
X103406Y-565706D01*
X102873Y-564817D01*
X102873Y-560372D01*
X103406Y-559483D01*
X104473Y-559039D01*
X105540Y-559039D01*
X106606Y-559483D01*
X107140Y-560372D01*
G54D13*
X109096Y-566150D02*
X109096Y-559039D01*
G54D13*
X110696Y-563483D02*
X112296Y-566150D01*
G54D13*
X109096Y-564372D02*
X112296Y-562150D01*
G54D16*
X609425Y-448358D02*
X613425Y-444358D01*
X613425Y-455025D01*
G54D16*
X622758Y-455025D02*
X616358Y-455025D01*
X616358Y-454358D01*
X617158Y-453025D01*
X621958Y-449025D01*
X622758Y-447692D01*
X622758Y-446358D01*
X621958Y-445025D01*
X620358Y-444358D01*
X618758Y-444358D01*
X617158Y-445025D01*
X616358Y-446358D01*
G54D16*
X628784Y-444358D02*
X632784Y-455025D01*
X636784Y-444358D01*
G54D16*
X590375Y-417814D02*
X596775Y-417814D01*
G54D16*
X593575Y-415148D02*
X593575Y-420481D01*
G54D16*
X601488Y-470996D02*
X607888Y-470996D01*
G54D15*
X357806Y-611394D02*
X361140Y-602505D01*
X364473Y-611394D01*
G54D15*
X359140Y-608060D02*
X363140Y-608060D01*
G54D15*
X366917Y-609727D02*
X367584Y-610838D01*
X368917Y-611394D01*
X370251Y-611394D01*
X371584Y-610838D01*
X372251Y-609727D01*
X372251Y-608616D01*
X371584Y-607505D01*
X370251Y-606949D01*
X368917Y-606949D01*
X367584Y-606394D01*
X366917Y-605283D01*
X366917Y-604172D01*
X367584Y-603060D01*
X368917Y-602505D01*
X370251Y-602505D01*
X371584Y-603060D01*
X372251Y-604172D01*
G54D15*
X380028Y-602505D02*
X374694Y-602505D01*
X374694Y-606394D01*
X375361Y-606394D01*
X376694Y-605838D01*
X378028Y-605838D01*
X379361Y-606394D01*
X380028Y-607505D01*
X380028Y-609727D01*
X379361Y-610838D01*
X378028Y-611394D01*
X376694Y-611394D01*
X375361Y-610838D01*
X374694Y-609727D01*
G54D15*
X387804Y-604172D02*
X387138Y-603060D01*
X385805Y-602505D01*
X384471Y-602505D01*
X383138Y-603060D01*
X382471Y-604172D01*
X382471Y-606949D01*
X382471Y-607505D01*
X384471Y-606394D01*
X385805Y-606394D01*
X387138Y-606949D01*
X387804Y-608060D01*
X387804Y-609727D01*
X387138Y-610838D01*
X385805Y-611394D01*
X384471Y-611394D01*
X383138Y-610838D01*
X382471Y-609727D01*
X382471Y-606949D01*
G54D15*
X395582Y-604172D02*
X395582Y-609727D01*
X394915Y-610838D01*
X393582Y-611394D01*
X392248Y-611394D01*
X390915Y-610838D01*
X390248Y-609727D01*
X390248Y-604172D01*
X390915Y-603060D01*
X392248Y-602505D01*
X393582Y-602505D01*
X394915Y-603060D01*
X395582Y-604172D01*
G54D15*
X403358Y-604172D02*
X403358Y-609727D01*
X402692Y-610838D01*
X401358Y-611394D01*
X400025Y-611394D01*
X398692Y-610838D01*
X398025Y-609727D01*
X398025Y-604172D01*
X398692Y-603060D01*
X400025Y-602505D01*
X401358Y-602505D01*
X402692Y-603060D01*
X403358Y-604172D01*
G54D15*
X366538Y-672512D02*
X369871Y-663624D01*
X373204Y-672512D01*
G54D15*
X367871Y-669179D02*
X371871Y-669179D01*
G54D15*
X375648Y-665290D02*
X376315Y-664179D01*
X377648Y-663624D01*
X378982Y-663624D01*
X380315Y-664179D01*
X380982Y-665290D01*
X380982Y-666401D01*
X380315Y-667512D01*
X378982Y-668068D01*
X380315Y-668624D01*
X380982Y-669735D01*
X380982Y-670846D01*
X380315Y-671957D01*
X378982Y-672512D01*
X377648Y-672512D01*
X376315Y-671957D01*
X375648Y-670846D01*
G54D15*
X383426Y-666957D02*
X386759Y-663624D01*
X386759Y-672512D01*
G54D15*
X393202Y-672512D02*
X393202Y-663624D01*
X389202Y-669179D01*
X389202Y-670290D01*
X394536Y-670290D01*
G54D15*
X400980Y-672512D02*
X400980Y-663624D01*
X396980Y-669179D01*
X396980Y-670290D01*
X402313Y-670290D01*
G54D15*
X514520Y-526753D02*
X523409Y-526753D01*
X517854Y-530086D01*
X523409Y-533420D01*
X514520Y-533420D01*
G54D15*
X514520Y-535864D02*
X523409Y-535864D01*
G54D15*
X514520Y-541197D02*
X523409Y-541197D01*
G54D15*
X518965Y-535864D02*
X518965Y-541197D01*
G54D15*
X518409Y-543641D02*
X518409Y-548974D01*
G54D15*
X514520Y-551418D02*
X523409Y-551418D01*
X517854Y-554751D01*
X523409Y-558085D01*
X514520Y-558085D01*
G54D15*
X514520Y-560529D02*
X523409Y-560529D01*
G54D15*
X514520Y-562973D02*
X523409Y-562973D01*
X514520Y-568306D01*
X523409Y-568306D01*
G54D15*
X514520Y-570750D02*
X523409Y-570750D01*
G54D15*
X521743Y-575771D02*
X522854Y-576438D01*
X523409Y-577771D01*
X523409Y-579104D01*
X522854Y-580438D01*
X521743Y-581104D01*
X520632Y-581104D01*
X519520Y-580438D01*
X518965Y-579104D01*
X518409Y-580438D01*
X517298Y-581104D01*
X516187Y-581104D01*
X515076Y-580438D01*
X514520Y-579104D01*
X514520Y-577771D01*
X515076Y-576438D01*
X516187Y-575771D01*
G54D15*
X521743Y-588881D02*
X522854Y-588215D01*
X523409Y-586881D01*
X523409Y-585548D01*
X522854Y-584215D01*
X521743Y-583548D01*
X518965Y-583548D01*
X518409Y-583548D01*
X519520Y-585548D01*
X519520Y-586881D01*
X518965Y-588215D01*
X517854Y-588881D01*
X516187Y-588881D01*
X515076Y-588215D01*
X514520Y-586881D01*
X514520Y-585548D01*
X515076Y-584215D01*
X516187Y-583548D01*
X518965Y-583548D01*
G54D15*
X521743Y-596658D02*
X516187Y-596658D01*
X515076Y-595992D01*
X514520Y-594658D01*
X514520Y-593325D01*
X515076Y-591992D01*
X516187Y-591325D01*
X521743Y-591325D01*
X522854Y-591992D01*
X523409Y-593325D01*
X523409Y-594658D01*
X522854Y-595992D01*
X521743Y-596658D01*
G54D10*
X460994Y-470106D02*
X583231Y-470106D01*
X583231Y-658225D01*
X460994Y-658225D01*
X460994Y-470106D01*
G54D10*
X381997Y-694469D02*
X381997Y-712469D01*
X347997Y-712469D01*
X347997Y-694469D01*
X381997Y-694469D01*
G54D17*
X371872Y-751540D02*
X371872Y-760873D01*
G54D17*
X371872Y-763984D02*
X371872Y-763984D01*
G54D17*
X375294Y-751540D02*
X375294Y-760873D01*
G54D17*
X375294Y-763984D02*
X375294Y-763984D01*
G54D17*
X378716Y-751540D02*
X378716Y-760873D01*
G54D17*
X378716Y-763984D02*
X378716Y-763984D01*
G54D17*
X385747Y-753873D02*
X386680Y-752318D01*
X388547Y-751540D01*
X390414Y-751540D01*
X392280Y-752318D01*
X393214Y-753873D01*
X393214Y-755429D01*
X392280Y-756984D01*
X390414Y-757762D01*
X392280Y-758540D01*
X393214Y-760096D01*
X393214Y-761651D01*
X392280Y-763207D01*
X390414Y-763984D01*
X388547Y-763984D01*
X386680Y-763207D01*
X385747Y-761651D01*
G54D17*
X398503Y-763984D02*
X398503Y-765540D01*
X397569Y-767096D01*
X396636Y-767096D01*
G54D17*
X401925Y-753873D02*
X402858Y-752318D01*
X404725Y-751540D01*
X406592Y-751540D01*
X408458Y-752318D01*
X409392Y-753873D01*
X409392Y-755429D01*
X408458Y-756984D01*
X406592Y-757762D01*
X408458Y-758540D01*
X409392Y-760096D01*
X409392Y-761651D01*
X408458Y-763207D01*
X406592Y-763984D01*
X404725Y-763984D01*
X402858Y-763207D01*
X401925Y-761651D01*
G54D17*
X416423Y-751540D02*
X421090Y-763984D01*
X425756Y-751540D01*
G54D17*
X434778Y-762118D02*
X434778Y-759007D01*
X433845Y-757451D01*
X431978Y-756984D01*
X430111Y-757451D01*
X429178Y-759007D01*
X429178Y-762118D01*
X430111Y-763673D01*
X431978Y-763984D01*
X433845Y-763673D01*
X434778Y-762118D01*
G54D17*
X438200Y-763984D02*
X438200Y-751540D01*
G54D17*
X443489Y-751540D02*
X443489Y-763207D01*
X444422Y-763984D01*
X445355Y-763673D01*
G54D17*
X441622Y-756984D02*
X445355Y-756984D01*
G54D17*
X452386Y-751540D02*
X452386Y-760873D01*
G54D17*
X452386Y-763984D02*
X452386Y-763984D01*
G54D17*
X455808Y-751540D02*
X455808Y-760873D01*
G54D17*
X455808Y-763984D02*
X455808Y-763984D01*
G54D17*
X459230Y-751540D02*
X459230Y-760873D01*
G54D17*
X459230Y-763984D02*
X459230Y-763984D01*
G54D13*
X340741Y-752063D02*
X341274Y-751174D01*
X342341Y-750730D01*
X343407Y-750730D01*
X344474Y-751174D01*
X345007Y-752063D01*
X345007Y-752952D01*
X344474Y-753841D01*
X343407Y-754285D01*
X344474Y-754730D01*
X345007Y-755618D01*
X345007Y-756507D01*
X344474Y-757396D01*
X343407Y-757841D01*
X342341Y-757841D01*
X341274Y-757396D01*
X340741Y-756507D01*
G54D13*
X348030Y-757841D02*
X348030Y-758730D01*
X347497Y-759618D01*
X346964Y-759618D01*
G54D13*
X349987Y-752063D02*
X350520Y-751174D01*
X351587Y-750730D01*
X352653Y-750730D01*
X353720Y-751174D01*
X354253Y-752063D01*
X354253Y-752952D01*
X353720Y-753841D01*
X352653Y-754285D01*
X353720Y-754730D01*
X354253Y-755618D01*
X354253Y-756507D01*
X353720Y-757396D01*
X352653Y-757841D01*
X351587Y-757841D01*
X350520Y-757396D01*
X349987Y-756507D01*
G54D13*
X356210Y-750730D02*
X358876Y-757841D01*
X361543Y-750730D01*
G54D13*
X358997Y-718074D02*
X361664Y-715408D01*
X361664Y-722519D01*
G54D13*
X367887Y-716741D02*
X367887Y-721186D01*
X367353Y-722074D01*
X366287Y-722519D01*
X365220Y-722519D01*
X364153Y-722074D01*
X363620Y-721186D01*
X363620Y-716741D01*
X364153Y-715852D01*
X365220Y-715408D01*
X366287Y-715408D01*
X367353Y-715852D01*
X367887Y-716741D01*
G54D13*
X369843Y-722519D02*
X369843Y-715408D01*
G54D13*
X371443Y-719852D02*
X373043Y-722519D01*
G54D13*
X369843Y-720741D02*
X373043Y-718519D01*
G54D13*
X349850Y-657164D02*
X352517Y-659831D01*
X345406Y-659831D01*
G54D13*
X351183Y-666054D02*
X346739Y-666054D01*
X345850Y-665521D01*
X345406Y-664454D01*
X345406Y-663388D01*
X345850Y-662321D01*
X346739Y-661788D01*
X351183Y-661788D01*
X352072Y-662321D01*
X352517Y-663388D01*
X352517Y-664454D01*
X352072Y-665521D01*
X351183Y-666054D01*
G54D13*
X345406Y-668010D02*
X352517Y-668010D01*
G54D13*
X348072Y-669610D02*
X345406Y-671210D01*
G54D13*
X347183Y-668010D02*
X349406Y-671210D01*
G54D10*
X335547Y-460354D02*
X335547Y-491554D01*
X319947Y-491554D01*
X319947Y-460354D01*
X335547Y-460354D01*
G54D13*
X314026Y-462849D02*
X316693Y-465515D01*
X309582Y-465515D01*
G54D13*
X315359Y-471738D02*
X310915Y-471738D01*
X310026Y-471205D01*
X309582Y-470138D01*
X309582Y-469072D01*
X310026Y-468005D01*
X310915Y-467472D01*
X315359Y-467472D01*
X316248Y-468005D01*
X316693Y-469072D01*
X316693Y-470138D01*
X316248Y-471205D01*
X315359Y-471738D01*
G54D13*
X313582Y-476895D02*
X309582Y-476895D01*
G54D13*
X310470Y-476895D02*
X309759Y-476361D01*
X309582Y-475295D01*
X309759Y-474228D01*
X310470Y-473695D01*
X313582Y-473695D01*
G54D13*
X309582Y-478851D02*
X316693Y-478851D01*
X316693Y-482584D01*
G54D13*
X313137Y-478851D02*
X313137Y-482584D01*
G54D13*
X325438Y-487030D02*
X329704Y-487030D01*
G54D13*
X327571Y-485252D02*
X327571Y-488807D01*
G54D13*
X325834Y-464011D02*
X330101Y-464011D01*
G54D18*
X409203Y-677292D02*
X409203Y-681625D01*
X408803Y-682292D01*
X408003Y-682625D01*
X407203Y-682625D01*
X406403Y-682292D01*
X406003Y-681625D01*
G54D18*
X410670Y-679292D02*
X412670Y-677292D01*
X412670Y-682625D01*
G54D18*
X415684Y-679625D02*
X415684Y-683958D01*
G54D18*
X415684Y-681625D02*
X416084Y-682492D01*
X416884Y-682625D01*
X417684Y-682492D01*
X418084Y-681825D01*
X418084Y-680492D01*
X417684Y-679825D01*
X416884Y-679625D01*
X416084Y-679825D01*
X415684Y-680625D01*
G54D18*
X419551Y-682625D02*
X419551Y-679625D01*
G54D18*
X419551Y-680292D02*
X420351Y-679625D01*
X421151Y-679625D01*
G54D18*
X425018Y-681825D02*
X425018Y-680492D01*
X424618Y-679825D01*
X423818Y-679625D01*
X423018Y-679825D01*
X422618Y-680492D01*
X422618Y-681825D01*
X423018Y-682492D01*
X423818Y-682625D01*
X424618Y-682492D01*
X425018Y-681825D01*
G54D18*
X426485Y-683625D02*
X427285Y-683958D01*
X427845Y-683958D01*
X428645Y-683625D01*
X428885Y-682958D01*
X428885Y-679625D01*
G54D18*
X428885Y-680492D02*
X428485Y-679825D01*
X427685Y-679625D01*
X426885Y-679825D01*
X426485Y-680492D01*
X426485Y-681825D01*
X426885Y-682492D01*
X427685Y-682625D01*
X428485Y-682492D01*
X428885Y-681825D01*
G54D18*
X430352Y-682625D02*
X430352Y-679625D01*
G54D18*
X430352Y-680292D02*
X431152Y-679625D01*
X431952Y-679625D01*
G54D18*
X433419Y-679958D02*
X434219Y-679625D01*
X435179Y-679625D01*
X435819Y-680292D01*
X435819Y-682625D01*
G54D18*
X435819Y-681625D02*
X435419Y-680958D01*
X434619Y-680825D01*
X433819Y-680958D01*
X433419Y-681625D01*
X433579Y-682292D01*
X434219Y-682625D01*
X434619Y-682625D01*
X434779Y-682625D01*
X435419Y-682292D01*
X435819Y-681625D01*
G54D18*
X437286Y-682625D02*
X437286Y-679625D01*
G54D18*
X437286Y-680158D02*
X438086Y-679625D01*
X438886Y-679825D01*
X439286Y-680292D01*
X439286Y-682625D01*
G54D18*
X439286Y-680158D02*
X440086Y-679625D01*
X440886Y-679825D01*
X441286Y-680292D01*
X441286Y-682625D01*
G54D18*
X442753Y-682625D02*
X442753Y-679625D01*
G54D18*
X442753Y-680158D02*
X443553Y-679625D01*
X444353Y-679825D01*
X444753Y-680292D01*
X444753Y-682625D01*
G54D18*
X444753Y-680158D02*
X445553Y-679625D01*
X446353Y-679825D01*
X446753Y-680292D01*
X446753Y-682625D01*
G54D18*
X448220Y-682625D02*
X448220Y-679625D01*
G54D18*
X448220Y-678625D02*
X448220Y-678625D01*
G54D18*
X449687Y-682625D02*
X449687Y-679625D01*
G54D18*
X449687Y-680292D02*
X450087Y-679825D01*
X450887Y-679625D01*
X451687Y-679825D01*
X452087Y-680292D01*
X452087Y-682625D01*
G54D18*
X453554Y-683625D02*
X454354Y-683958D01*
X454914Y-683958D01*
X455714Y-683625D01*
X455954Y-682958D01*
X455954Y-679625D01*
G54D18*
X455954Y-680492D02*
X455554Y-679825D01*
X454754Y-679625D01*
X453954Y-679825D01*
X453554Y-680492D01*
X453554Y-681825D01*
X453954Y-682492D01*
X454754Y-682625D01*
X455554Y-682492D01*
X455954Y-681825D01*
M02*
