; Drill file
; Format: 2.4 (00.0000)
M48
INCH
T01C0.0118
T02C0.0354
T03C0.126
%
G05
G90
T01
X011020Y-026750
X013160Y-027610
X013180Y-024410
X011050Y-022000
X011050Y-021190
X010390Y-020530
X013140Y-020040
X013140Y-017350
X015990Y-019100
X016960Y-020530
T02
X010850Y-028950
X011850Y-028950
X012850Y-028950
X013850Y-028950
X016520Y-027670
X017520Y-027670
X018680Y-025410
X015720Y-025340
X014980Y-025350
X014250Y-025330
X018680Y-019100
X022460Y-019100
X023310Y-017380
X024650Y-018700
X022430Y-025380
T03
X009070Y-028780
X020880Y-028770
X024180Y-022420
X020870Y-016190
X009030Y-016220
M30
