%FSLAX34Y34*%
%MOMM*%
%LNCOPPER_TOP*%
G71*
G01*
%ADD10R, 2.40X0.80*%
%ADD11R, 1.50X1.90*%
%ADD12C, 1.50*%
%ADD13C, 0.60*%
%ADD14C, 1.25*%
%ADD15R, 1.10X1.20*%
%ADD16R, 1.20X1.10*%
%ADD17C, 3.80*%
%ADD18C, 2.20*%
%ADD19C, 0.80*%
%ADD20R, 1.80X1.30*%
%LPD*%
X356000Y-551838D02*
G54D10*
D03*
X356000Y-564538D02*
G54D10*
D03*
X356000Y-577238D02*
G54D10*
D03*
X356000Y-589938D02*
G54D10*
D03*
X406000Y-589938D02*
G54D10*
D03*
X406000Y-577238D02*
G54D10*
D03*
X406000Y-564538D02*
G54D10*
D03*
X406000Y-551838D02*
G54D10*
D03*
G36*
X317800Y-686972D02*
X292800Y-686972D01*
X292800Y-674472D01*
X317800Y-674472D01*
X317800Y-686972D01*
G37*
G36*
X317800Y-626251D02*
X292800Y-626251D01*
X292800Y-613751D01*
X317800Y-613751D01*
X317800Y-626251D01*
G37*
G36*
X317800Y-666732D02*
X292800Y-666732D01*
X292800Y-654232D01*
X317800Y-654232D01*
X317800Y-666732D01*
G37*
G36*
X318197Y-606010D02*
X293197Y-606010D01*
X293197Y-593510D01*
X318197Y-593510D01*
X318197Y-606010D01*
G37*
G36*
X317800Y-646491D02*
X292800Y-646491D01*
X292800Y-633991D01*
X317800Y-633991D01*
X317800Y-646491D01*
G37*
G36*
X318197Y-606010D02*
X293197Y-606010D01*
X293197Y-593510D01*
X318197Y-593510D01*
X318197Y-606010D01*
G37*
G36*
X318197Y-545288D02*
X293197Y-545288D01*
X293197Y-532788D01*
X318197Y-532788D01*
X318197Y-545288D01*
G37*
G36*
X318197Y-585769D02*
X293197Y-585769D01*
X293197Y-573269D01*
X318197Y-573269D01*
X318197Y-585769D01*
G37*
G36*
X318197Y-565528D02*
X293197Y-565528D01*
X293197Y-553028D01*
X318197Y-553028D01*
X318197Y-565528D01*
G37*
G36*
X146350Y-686972D02*
X121350Y-686972D01*
X121350Y-674472D01*
X146350Y-674472D01*
X146350Y-686972D01*
G37*
G36*
X146350Y-626250D02*
X121350Y-626250D01*
X121350Y-613750D01*
X146350Y-613750D01*
X146350Y-626250D01*
G37*
G36*
X146350Y-666731D02*
X121350Y-666731D01*
X121350Y-654231D01*
X146350Y-654231D01*
X146350Y-666731D01*
G37*
G36*
X146747Y-606009D02*
X121747Y-606009D01*
X121747Y-593509D01*
X146747Y-593509D01*
X146747Y-606009D01*
G37*
G36*
X146350Y-646491D02*
X121350Y-646491D01*
X121350Y-633991D01*
X146350Y-633991D01*
X146350Y-646491D01*
G37*
G36*
X146747Y-606009D02*
X121747Y-606009D01*
X121747Y-593509D01*
X146747Y-593509D01*
X146747Y-606009D01*
G37*
G36*
X146747Y-545288D02*
X121747Y-545288D01*
X121747Y-532788D01*
X146747Y-532788D01*
X146747Y-545288D01*
G37*
G36*
X146747Y-585769D02*
X121747Y-585769D01*
X121747Y-573269D01*
X146747Y-573269D01*
X146747Y-585769D01*
G37*
G36*
X146747Y-565528D02*
X121747Y-565528D01*
X121747Y-553028D01*
X146747Y-553028D01*
X146747Y-565528D01*
G37*
X359685Y-465093D02*
G54D11*
D03*
G36*
X375185Y-455694D02*
X390185Y-455693D01*
X390185Y-474693D01*
X375185Y-474694D01*
X375185Y-455694D01*
G37*
G36*
X398185Y-455694D02*
X413185Y-455694D01*
X413185Y-474693D01*
X398185Y-474694D01*
X398185Y-455694D01*
G37*
G36*
X361785Y-395994D02*
X403785Y-395993D01*
X403785Y-416993D01*
X361785Y-416994D01*
X361785Y-395994D01*
G37*
G54D12*
X380512Y-636316D02*
X380512Y-651316D01*
G54D12*
X362053Y-635916D02*
X362053Y-650916D01*
G54D12*
X399356Y-636112D02*
X399356Y-651112D01*
G54D13*
X363244Y-564438D02*
X363362Y-521700D01*
X381500Y-521575D01*
X381500Y-462838D01*
X406106Y-485062D02*
G54D14*
D03*
G54D13*
X406900Y-469312D02*
X406900Y-485188D01*
X333875Y-440738D02*
G54D14*
D03*
G54D13*
X333875Y-440738D02*
X333875Y-462962D01*
X359275Y-462962D01*
G54D13*
X332288Y-677275D02*
X310062Y-677275D01*
X333875Y-509000D02*
G54D14*
D03*
G54D13*
X334669Y-584009D02*
X340622Y-589962D01*
X349750Y-589962D01*
G54D13*
X332288Y-677275D02*
X367212Y-677275D01*
X381500Y-662988D01*
X381500Y-636000D01*
X383088Y-634412D01*
G54D13*
X130675Y-682038D02*
X122738Y-682038D01*
X90988Y-650288D01*
X90988Y-507412D01*
X113212Y-495506D01*
X380706Y-495506D01*
G54D13*
X313634Y-601472D02*
X386262Y-601472D01*
X386262Y-577262D01*
X411662Y-577262D01*
X430712Y-521575D02*
G54D14*
D03*
G54D13*
X414838Y-564562D02*
X427538Y-564562D01*
X430712Y-561388D01*
X430712Y-521700D01*
X264025Y-521575D02*
G54D14*
D03*
G54D13*
X263231Y-520906D02*
X263231Y-563372D01*
X278556Y-578769D01*
X298950Y-579247D01*
G54D13*
X334272Y-509000D02*
X334669Y-583612D01*
G54D13*
X333875Y-509000D02*
X254500Y-509000D01*
X248150Y-515350D01*
X248150Y-645525D01*
X283075Y-680450D01*
X306888Y-680450D01*
G54D13*
X313634Y-641159D02*
X362747Y-641191D01*
X92575Y-539162D02*
G54D15*
D03*
X109575Y-539162D02*
G54D15*
D03*
G54D13*
X113212Y-539162D02*
X130675Y-539162D01*
X332850Y-659250D02*
G54D16*
D03*
X332850Y-676250D02*
G54D16*
D03*
G54D13*
X308475Y-661400D02*
X332288Y-661400D01*
G54D13*
X397375Y-551862D02*
X382412Y-551862D01*
X375150Y-558212D01*
X375150Y-588375D01*
X373562Y-589962D01*
X367212Y-589962D01*
X92575Y-578850D02*
G54D15*
D03*
X109575Y-578850D02*
G54D15*
D03*
G54D13*
X110038Y-578850D02*
X132262Y-578850D01*
X433888Y-551862D02*
G54D15*
D03*
X450888Y-551862D02*
G54D15*
D03*
X433888Y-580438D02*
G54D15*
D03*
X450888Y-580438D02*
G54D15*
D03*
G54D13*
X381500Y-500269D02*
X437856Y-500269D01*
X451350Y-520112D01*
X451350Y-578850D01*
G54D13*
X413250Y-577262D02*
X433888Y-577262D01*
X433888Y-616156D02*
G54D15*
D03*
X450888Y-616156D02*
G54D15*
D03*
G54D13*
X362053Y-643541D02*
X361503Y-616075D01*
X433888Y-616156D01*
G54D13*
X451350Y-617744D02*
X451350Y-575675D01*
X229450Y-411900D02*
G54D17*
D03*
X530050Y-411100D02*
G54D17*
D03*
X230450Y-730900D02*
G54D17*
D03*
X530250Y-730700D02*
G54D17*
D03*
X280694Y-538244D02*
G54D14*
D03*
X280694Y-558881D02*
G54D14*
D03*
X279900Y-679531D02*
G54D14*
D03*
G54D13*
X280019Y-538369D02*
X303038Y-538369D01*
G54D13*
X280812Y-559800D02*
X304625Y-559800D01*
X305419Y-560594D01*
X474488Y-485188D02*
G54D18*
D03*
X474488Y-645525D02*
G54D18*
D03*
X569738Y-644731D02*
G54D18*
D03*
X570531Y-485188D02*
G54D18*
D03*
G54D19*
X570134Y-565753D02*
X569738Y-486775D01*
X571325Y-485188D01*
X591962Y-441531D02*
G54D18*
D03*
X626094Y-474869D02*
G54D18*
D03*
G54D19*
X571325Y-485188D02*
X615775Y-485188D01*
X626094Y-474869D01*
G54D19*
X474488Y-485188D02*
X475000Y-441000D01*
X591962Y-440738D01*
X592756Y-441531D01*
G54D19*
X569738Y-513762D02*
X570531Y-643938D01*
X614188Y-569453D02*
G54D17*
D03*
X373497Y-703469D02*
G54D15*
D03*
X356497Y-703469D02*
G54D15*
D03*
X334669Y-620000D02*
G54D14*
D03*
X334272Y-701359D02*
G54D14*
D03*
G54D13*
X309512Y-620044D02*
X333722Y-620044D01*
X334516Y-620838D01*
G54D13*
X332134Y-701800D02*
X357138Y-701800D01*
G36*
X362863Y-746409D02*
X340863Y-746409D01*
X340863Y-724409D01*
X362863Y-724409D01*
X362863Y-746409D01*
G37*
X326463Y-735409D02*
G54D18*
D03*
X301063Y-735409D02*
G54D18*
D03*
X275663Y-735409D02*
G54D18*
D03*
G54D13*
X142478Y-679450D02*
X142478Y-705247D01*
X197644Y-760412D01*
X341312Y-760412D01*
X351234Y-750491D01*
X351234Y-734616D01*
X327747Y-459554D02*
G54D20*
D03*
X327847Y-492054D02*
G54D20*
D03*
G36*
X430497Y-691866D02*
X430497Y-713866D01*
X408497Y-713866D01*
X408497Y-691866D01*
X430497Y-691866D01*
G37*
X444897Y-702866D02*
G54D18*
D03*
G54D13*
X373856Y-703659D02*
X419100Y-703659D01*
X419894Y-702866D01*
G54D13*
X352028Y-735409D02*
X428625Y-735409D01*
X444897Y-719138D01*
X444897Y-698897D01*
M02*
