%FSLAX34Y34*%
%MOMM*%
%LNSOLDERMASK_TOP*%
G71*
G01*
%ADD10R, 2.60X1.00*%
%ADD11R, 1.70X2.10*%
%ADD12C, 2.10*%
%ADD13C, 1.85*%
%ADD14R, 1.30X1.40*%
%ADD15R, 1.40X1.30*%
%ADD16C, 2.80*%
%ADD17R, 2.00X1.50*%
%LPD*%
X356000Y-551838D02*
G54D10*
D03*
X356000Y-564538D02*
G54D10*
D03*
X356000Y-577238D02*
G54D10*
D03*
X356000Y-589938D02*
G54D10*
D03*
X406000Y-589938D02*
G54D10*
D03*
X406000Y-577238D02*
G54D10*
D03*
X406000Y-564538D02*
G54D10*
D03*
X406000Y-551838D02*
G54D10*
D03*
G36*
X320800Y-689972D02*
X289800Y-689972D01*
X289800Y-671472D01*
X320800Y-671472D01*
X320800Y-689972D01*
G37*
G36*
X320800Y-629251D02*
X289800Y-629251D01*
X289800Y-610751D01*
X320800Y-610751D01*
X320800Y-629251D01*
G37*
G36*
X320800Y-669732D02*
X289800Y-669732D01*
X289800Y-651232D01*
X320800Y-651232D01*
X320800Y-669732D01*
G37*
G36*
X321197Y-609010D02*
X290197Y-609010D01*
X290197Y-590510D01*
X321197Y-590510D01*
X321197Y-609010D01*
G37*
G36*
X320800Y-649491D02*
X289800Y-649491D01*
X289800Y-630991D01*
X320800Y-630991D01*
X320800Y-649491D01*
G37*
G36*
X321197Y-609010D02*
X290197Y-609010D01*
X290197Y-590510D01*
X321197Y-590510D01*
X321197Y-609010D01*
G37*
G36*
X321197Y-548288D02*
X290197Y-548288D01*
X290197Y-529788D01*
X321197Y-529788D01*
X321197Y-548288D01*
G37*
G36*
X321197Y-588769D02*
X290197Y-588769D01*
X290197Y-570269D01*
X321197Y-570269D01*
X321197Y-588769D01*
G37*
G36*
X321197Y-568528D02*
X290197Y-568528D01*
X290197Y-550028D01*
X321197Y-550028D01*
X321197Y-568528D01*
G37*
G36*
X149350Y-689972D02*
X118350Y-689972D01*
X118350Y-671472D01*
X149350Y-671472D01*
X149350Y-689972D01*
G37*
G36*
X149350Y-629250D02*
X118350Y-629250D01*
X118350Y-610750D01*
X149350Y-610750D01*
X149350Y-629250D01*
G37*
G36*
X149350Y-669731D02*
X118350Y-669731D01*
X118350Y-651231D01*
X149350Y-651231D01*
X149350Y-669731D01*
G37*
G36*
X149747Y-609009D02*
X118747Y-609009D01*
X118747Y-590509D01*
X149747Y-590509D01*
X149747Y-609009D01*
G37*
G36*
X149350Y-649491D02*
X118350Y-649491D01*
X118350Y-630991D01*
X149350Y-630991D01*
X149350Y-649491D01*
G37*
G36*
X149747Y-609009D02*
X118747Y-609009D01*
X118747Y-590509D01*
X149747Y-590509D01*
X149747Y-609009D01*
G37*
G36*
X149747Y-548288D02*
X118747Y-548288D01*
X118747Y-529788D01*
X149747Y-529788D01*
X149747Y-548288D01*
G37*
G36*
X149747Y-588769D02*
X118747Y-588769D01*
X118747Y-570269D01*
X149747Y-570269D01*
X149747Y-588769D01*
G37*
G36*
X149747Y-568528D02*
X118747Y-568528D01*
X118747Y-550028D01*
X149747Y-550028D01*
X149747Y-568528D01*
G37*
X359685Y-465093D02*
G54D11*
D03*
G36*
X374185Y-454694D02*
X391185Y-454693D01*
X391185Y-475693D01*
X374185Y-475694D01*
X374185Y-454694D01*
G37*
G36*
X397185Y-454694D02*
X414185Y-454693D01*
X414185Y-475693D01*
X397185Y-475694D01*
X397185Y-454694D01*
G37*
G36*
X360785Y-394994D02*
X404785Y-394993D01*
X404785Y-417993D01*
X360785Y-417994D01*
X360785Y-394994D01*
G37*
G54D12*
X380512Y-636316D02*
X380512Y-651316D01*
G54D12*
X362053Y-635916D02*
X362053Y-650916D01*
G54D12*
X399356Y-636112D02*
X399356Y-651112D01*
X406106Y-485062D02*
G54D13*
D03*
X333875Y-440738D02*
G54D13*
D03*
X333875Y-509000D02*
G54D13*
D03*
X430712Y-521575D02*
G54D13*
D03*
X264025Y-521575D02*
G54D13*
D03*
X92575Y-539162D02*
G54D14*
D03*
X109575Y-539162D02*
G54D14*
D03*
X332850Y-659250D02*
G54D15*
D03*
X332850Y-676250D02*
G54D15*
D03*
X92575Y-578850D02*
G54D14*
D03*
X109575Y-578850D02*
G54D14*
D03*
X433888Y-551862D02*
G54D14*
D03*
X450888Y-551862D02*
G54D14*
D03*
X433888Y-580438D02*
G54D14*
D03*
X450888Y-580438D02*
G54D14*
D03*
X433888Y-616156D02*
G54D14*
D03*
X450888Y-616156D02*
G54D14*
D03*
X280694Y-538244D02*
G54D13*
D03*
X280694Y-558881D02*
G54D13*
D03*
X279900Y-679531D02*
G54D13*
D03*
X474488Y-485188D02*
G54D16*
D03*
X474488Y-645525D02*
G54D16*
D03*
X569738Y-644731D02*
G54D16*
D03*
X570531Y-485188D02*
G54D16*
D03*
X591962Y-441531D02*
G54D16*
D03*
X626094Y-474869D02*
G54D16*
D03*
X373497Y-703469D02*
G54D14*
D03*
X356497Y-703469D02*
G54D14*
D03*
X334669Y-620000D02*
G54D13*
D03*
X334272Y-701359D02*
G54D13*
D03*
G36*
X365863Y-749409D02*
X337863Y-749409D01*
X337863Y-721409D01*
X365863Y-721409D01*
X365863Y-749409D01*
G37*
X326463Y-735409D02*
G54D16*
D03*
X301063Y-735409D02*
G54D16*
D03*
X275663Y-735409D02*
G54D16*
D03*
X327747Y-459554D02*
G54D17*
D03*
X327847Y-492054D02*
G54D17*
D03*
G36*
X433497Y-688866D02*
X433497Y-716866D01*
X405497Y-716866D01*
X405497Y-688866D01*
X433497Y-688866D01*
G37*
X444897Y-702866D02*
G54D16*
D03*
M02*
